<?xml version="1.0" encoding="utf-8"?>
<!-- Generator: Adobe Illustrator 24.3.0, SVG Export Plug-In . SVG Version: 6.00 Build 0)  -->
<svg version="1.1" id="Layer_1" xmlns="http://www.w3.org/2000/svg" xmlns:xlink="http://www.w3.org/1999/xlink" x="0px" y="0px"
	 viewBox="0 0 512 512" style="enable-background:new 0 0 512 512;" xml:space="preserve">
<style type="text/css">
	.st0{fill:#F7B239;}
	.st1{fill:#2BA5F7;}
	.st2{fill:#F95428;}
	.st3{fill:#333333;}
</style>
<polygon class="st0" points="444.5,144.9 256,253.7 67.5,144.9 256,36.1 "/>
<polygon class="st1" points="256,253.7 256,475.9 67.5,367 67.5,144.9 "/>
<polygon class="st2" points="444.5,144.9 444.5,367.1 256,475.9 256,475.9 256,253.7 "/>
<path class="st3" d="M250.9,27.4L62.5,136.2c-3.1,1.8-5.1,5.2-5.1,8.8l0,222.1c0,3.6,1.9,7,5.1,8.8l188.4,108.9
	c1.6,0.9,3.3,1.4,5.1,1.4c1.7,0,3.5-0.5,5.1-1.4l188.5-108.8c3.1-1.8,5.1-5.2,5.1-8.8V144.9c0-3.6-1.9-7-5.1-8.8L261.1,27.4
	C257.9,25.5,254.1,25.5,250.9,27.4z M77.7,162.5l168.2,97.1l0,198.7L77.7,361.1L77.7,162.5z M434.3,361.2l-168.2,97.1l0-198.7
	l168.2-97.1L434.3,361.2L434.3,361.2L434.3,361.2z M256,242.1L87.8,144.9L256,47.8l168.2,97.1L256,242.1z"/>
</svg>
